<svg xmlns="http://www.w3.org/2000/svg" viewBox="0 0 800 600" fill="none"><path d="M400 100C250 100 150 200 150 350C150 500 250 550 400 550C550 550 650 500 650 350C650 200 550 100 400 100Z" fill="#E0E7FF"/><path d="M400 150C280 150 200 230 200 350C200 470 280 500 400 500C520 500 600 470 600 350C600 230 520 150 400 150Z" fill="#818CF8"/><circle cx="400" cy="350" r="120" fill="#4F46E5"/><path d="M320 350C320 300 360 260 400 260C440 260 480 300 480 350" stroke="white" stroke-width="20" stroke-linecap="round"/><path d="M350 350C350 320 370 300 400 300C430 300 450 320 450 350" stroke="white" stroke-width="15" stroke-linecap="round"/><circle cx="400" cy="380" r="15" fill="white"/></svg>