<svg xmlns="http://www.w3.org/2000/svg" viewBox="0 0 800 600" fill="none"><path d="M400 100C250 100 150 200 150 350C150 500 250 550 400 550C550 550 650 500 650 350C650 200 550 100 400 100Z" fill="#E0E7FF"/><path d="M400 150C280 150 200 230 200 350C200 470 280 500 400 500C520 500 600 470 600 350C600 230 520 150 400 150Z" fill="#818CF8"/><path d="M400 200C310 200 250 260 250 350C250 440 310 450 400 450C490 450 550 440 550 350C550 260 490 200 400 200Z" fill="#4F46E5"/><path d="M380 280L420 280L420 380L380 380L380 280Z" fill="white"/><path d="M340 320L460 320L460 340L340 340L340 320Z" fill="white"/></svg>